<svg height="16" width="16" xmlns="http://www.w3.org/2000/svg"><g transform="translate(0 -6)"><g fill="#bebebe"><path d="m6.5 1c-.277 0-.5.223-.5.5v.5h-2c-.554 0-1 .446-1 1v11c0 .554.446 1 1 1h8c.554 0 1-.446 1-1v-11c0-.554-.446-1-1-1h-2v-.5c0-.277-.223-.5-.5-.5zm.5 3 4 6h-2.4584763l.4584763 4-4-6h2.5036033z" transform="translate(0 6)"/><path d="m20 20.75c0 .6925.5575 1.25 1.25 1.25h8.5c.6925 0 1.25-.5575 1.25-1.25v-1.6875l-2-3.375v3.5625c0 .4155-.3345.75-.75.75h-5.5c-.4155 0-.75-.3345-.75-.75v-8.5c0-.4155.3345-.75.75-.75h5.5c.4155 0 .75.3345.75.75v3.25h.90625a1.0121545 1.0121545 0 0 1 .09375 0l1-.03125v-3.875-.15625-.6875c0-.6925-.5575-1.25-1.25-1.25h-1.75v-1-.5c0-.277-.223-.5-.5-.5h-.5-3-.5c-.277 0-.5.223-.5.5v.5 1h-1.75c-.6925 0-1.25.5575-1.25 1.25z"/><path d="m34 22-4-7h2.458476l-.458476-5 4 7h-2.526167z"/><rect height="10" opacity=".45" rx=".5" width="7" x="22" y="10"/><path d="m22 40.75c0 .6925.5575 1.25 1.25 1.25h8.5c.6925 0 1.25-.5575 1.25-1.25v-11.5c0-.6925-.5575-1.25-1.25-1.25h-1.75v-1-.5c0-.277-.223-.5-.5-.5h-.5-3-.5c-.277 0-.5.223-.5.5v.5 1h-1.75c-.6925 0-1.25.5575-1.25 1.25zm2-1.5v-8.5c0-.4155.3345-.75.75-.75h5.5c.4155 0 .75.3345.75.75v8.5c0 .4155-.3345.75-.75.75h-5.5c-.4155 0-.75-.3345-.75-.75z"/><path d="m-13.5 7c-.277 0-.5.223-.5.5v.5h-2c-.554 0-1 .446-1 1v11c0 .554.446 1 1 1h8c.554 0 1-.446 1-1v-11c0-.554-.446-1-1-1h-2v-.5c0-.277-.223-.5-.5-.5zm-1 3h5c.277 0 .5.223.5.5v8c0 .277-.223.5-.5.5h-5c-.277 0-.5-.223-.5-.5v-8c0-.277.223-.5.5-.5z"/></g><path d="m-15.5 9h7c.277 0 .5.223.5.5v10c0 .277-.223.5-.5.5h-7c-.277 0-.5-.223-.5-.5v-10c0-.277.223-.5.5-.5z" fill="#0a0"/><path d="m-11 19-3-5h2l-1-4 3 5h-2z" fill="#bebebe"/></g></svg>